<svg width="60" height="73" viewBox="0 0 60 73" fill="none" xmlns="http://www.w3.org/2000/svg">
<g filter="url(#filter0_f_90_24)">
<path d="M23.3594 43.4531C23.7135 43.4531 23.9635 43.5365 24.1094 43.7031C24.2656 43.8594 24.3438 44.1302 24.3438 44.5156C24.3438 44.901 24.2656 45.1771 24.1094 45.3438C23.9635 45.5 23.7135 45.5781 23.3594 45.5781H22.5156L20.3594 61.3281C20.3073 61.7031 20.1719 61.9635 19.9531 62.1094C19.7448 62.2656 19.4323 62.3438 19.0156 62.3438C18.1615 62.3438 17.6302 62.0052 17.4219 61.3281L14.5312 52.25L11.6094 61.3281C11.3906 62.0052 10.849 62.3438 9.98438 62.3438C9.57812 62.3438 9.26562 62.2656 9.04688 62.1094C8.83854 61.9531 8.71354 61.6927 8.67188 61.3281L6.59375 45.5781H5.82812C5.47396 45.5781 5.21875 45.5 5.0625 45.3438C4.91667 45.1771 4.84375 44.901 4.84375 44.5156C4.84375 44.1302 4.91667 43.8594 5.0625 43.7031C5.21875 43.5365 5.47396 43.4531 5.82812 43.4531H11.2031C11.5573 43.4531 11.8073 43.5365 11.9531 43.7031C12.1094 43.8594 12.1875 44.1302 12.1875 44.5156C12.1875 44.901 12.1094 45.1771 11.9531 45.3438C11.8073 45.5 11.5573 45.5781 11.2031 45.5781H8.92188L10.4844 58.0938L13.4219 48.9062C13.5677 48.4167 13.9427 48.1719 14.5469 48.1719C14.8802 48.1719 15.1354 48.224 15.3125 48.3281C15.5 48.4323 15.625 48.5885 15.6875 48.7969L18.6094 58.0938L20.2344 45.5781H18.2969C17.9427 45.5781 17.6875 45.5 17.5312 45.3438C17.3854 45.1771 17.3125 44.901 17.3125 44.5156C17.3125 44.1302 17.3854 43.8594 17.5312 43.7031C17.6875 43.5365 17.9427 43.4531 18.2969 43.4531H23.3594ZM35.5619 43.1094C35.989 43.1094 36.291 43.1875 36.4681 43.3438C36.6452 43.5 36.7338 43.7604 36.7338 44.125V47.7188C36.7338 48.0833 36.6452 48.3438 36.4681 48.5C36.291 48.6562 35.989 48.7344 35.5619 48.7344C35.166 48.7344 34.8952 48.599 34.7494 48.3281C34.2494 47.3802 33.5463 46.6615 32.64 46.1719C31.7338 45.6719 30.7025 45.4219 29.5463 45.4219C28.4004 45.4219 27.5098 45.6875 26.8744 46.2188C26.2494 46.75 25.9369 47.4635 25.9369 48.3594C25.9369 48.7865 26.0463 49.1458 26.265 49.4375C26.4838 49.7292 26.7963 49.9792 27.2025 50.1875C27.5671 50.375 27.9942 50.5312 28.4838 50.6562C28.9733 50.7708 29.6296 50.9062 30.4525 51.0625C31.3483 51.2396 32.0567 51.3906 32.5775 51.5156C33.1088 51.6302 33.6296 51.7917 34.14 52C35.1817 52.4271 35.9942 53.026 36.5775 53.7969C37.1713 54.5573 37.4681 55.5885 37.4681 56.8906C37.4681 57.974 37.2129 58.9271 36.7025 59.75C36.1921 60.5625 35.4369 61.1979 34.4369 61.6562C33.4473 62.1146 32.2546 62.3438 30.8588 62.3438C29.8171 62.3438 28.8483 62.1562 27.9525 61.7812C27.0671 61.3958 26.2963 60.8385 25.64 60.1094V61.3281C25.64 61.6927 25.5515 61.9531 25.3744 62.1094C25.1973 62.2656 24.8952 62.3438 24.4681 62.3438C24.041 62.3438 23.739 62.2656 23.5619 62.1094C23.3848 61.9531 23.2963 61.6927 23.2963 61.3281V56.6406C23.2963 56.276 23.3848 56.0156 23.5619 55.8594C23.739 55.7031 24.041 55.625 24.4681 55.625C24.916 55.625 25.2181 55.8438 25.3744 56.2812C25.8015 57.4896 26.4785 58.4167 27.4056 59.0625C28.3431 59.7083 29.4942 60.0312 30.8588 60.0312C32.1921 60.0312 33.2129 59.7448 33.9213 59.1719C34.64 58.599 34.9994 57.8385 34.9994 56.8906C34.9994 56.2344 34.8327 55.7031 34.4994 55.2969C34.1765 54.8802 33.7025 54.5365 33.0775 54.2656C32.6817 54.0885 32.2494 53.9479 31.7806 53.8438C31.3119 53.7292 30.6713 53.5885 29.8588 53.4219C29.0046 53.2552 28.2858 53.099 27.7025 52.9531C27.1296 52.8073 26.5983 52.625 26.1088 52.4062C25.2754 52.0312 24.6244 51.526 24.1556 50.8906C23.6973 50.2448 23.4681 49.401 23.4681 48.3594C23.4681 47.2865 23.7233 46.3542 24.2338 45.5625C24.7546 44.7708 25.4733 44.1667 26.39 43.75C27.3171 43.3229 28.3692 43.1094 29.5463 43.1094C30.4629 43.1094 31.3483 43.2865 32.2025 43.6406C33.0567 43.9948 33.7858 44.474 34.39 45.0781V44.125C34.39 43.7604 34.4785 43.5 34.6556 43.3438C34.8327 43.1875 35.1348 43.1094 35.5619 43.1094ZM53.7644 43.4531C54.1185 43.4531 54.3685 43.5365 54.5144 43.7031C54.6706 43.8594 54.7488 44.1302 54.7488 44.5156C54.7488 44.901 54.6706 45.1771 54.5144 45.3438C54.3685 45.5 54.1185 45.5781 53.7644 45.5781H52.8113L46.2644 51.9062C46.3477 51.8958 46.4727 51.8906 46.6394 51.8906C48.004 51.8906 49.0925 52.4115 49.905 53.4531C50.2279 53.8698 50.5092 54.3385 50.7488 54.8594C50.9988 55.3802 51.2696 56.0312 51.5613 56.8125C51.6029 56.9167 51.7071 57.1927 51.8738 57.6406C52.0508 58.0781 52.2227 58.4479 52.3894 58.75C52.7956 59.5 53.2644 59.875 53.7956 59.875H54.2331C54.5873 59.875 54.8373 59.9583 54.9831 60.125C55.1394 60.2812 55.2175 60.5521 55.2175 60.9375C55.2175 61.3229 55.1394 61.599 54.9831 61.7656C54.8373 61.9219 54.5873 62 54.2331 62H52.9519C51.8998 62 51.004 61.276 50.2644 59.8281C50.004 59.3073 49.6967 58.5938 49.3425 57.6875C49.1029 57.0521 48.8842 56.5156 48.6863 56.0781C48.4883 55.6406 48.2696 55.25 48.03 54.9062C47.78 54.5521 47.4623 54.2812 47.0769 54.0938C46.7019 53.9062 46.2748 53.8125 45.7956 53.8125C45.3581 53.8125 44.9363 53.8906 44.53 54.0469C44.1238 54.2031 43.7644 54.4323 43.4519 54.7344L42.9831 55.1875V59.875H45.5144C45.8685 59.875 46.1185 59.9583 46.2644 60.125C46.4206 60.2812 46.4988 60.5521 46.4988 60.9375C46.4988 61.3229 46.4206 61.599 46.2644 61.7656C46.1185 61.9219 45.8685 62 45.5144 62H38.8894C38.5352 62 38.28 61.9219 38.1238 61.7656C37.9779 61.599 37.905 61.3229 37.905 60.9375C37.905 60.5521 37.9779 60.2812 38.1238 60.125C38.28 59.9583 38.5352 59.875 38.8894 59.875H40.6394V45.5781H38.8894C38.5352 45.5781 38.28 45.5 38.1238 45.3438C37.9779 45.1771 37.905 44.901 37.905 44.5156C37.905 44.1302 37.9779 43.8594 38.1238 43.7031C38.28 43.5365 38.5352 43.4531 38.8894 43.4531H44.4206C44.7748 43.4531 45.0248 43.5365 45.1706 43.7031C45.3269 43.8594 45.405 44.1302 45.405 44.5156C45.405 44.901 45.3269 45.1771 45.1706 45.3438C45.0248 45.5 44.7748 45.5781 44.4206 45.5781H42.9831V52.2812L49.8269 45.5781H48.7019C48.3477 45.5781 48.0925 45.5 47.9363 45.3438C47.7904 45.1771 47.7175 44.901 47.7175 44.5156C47.7175 44.1302 47.7904 43.8594 47.9363 43.7031C48.0925 43.5365 48.3477 43.4531 48.7019 43.4531H53.7644Z" fill="#00FF38"/>
</g>
<path d="M23.3594 43.4531C23.7135 43.4531 23.9635 43.5365 24.1094 43.7031C24.2656 43.8594 24.3438 44.1302 24.3438 44.5156C24.3438 44.901 24.2656 45.1771 24.1094 45.3438C23.9635 45.5 23.7135 45.5781 23.3594 45.5781H22.5156L20.3594 61.3281C20.3073 61.7031 20.1719 61.9635 19.9531 62.1094C19.7448 62.2656 19.4323 62.3438 19.0156 62.3438C18.1615 62.3438 17.6302 62.0052 17.4219 61.3281L14.5312 52.25L11.6094 61.3281C11.3906 62.0052 10.849 62.3438 9.98438 62.3438C9.57812 62.3438 9.26562 62.2656 9.04688 62.1094C8.83854 61.9531 8.71354 61.6927 8.67188 61.3281L6.59375 45.5781H5.82812C5.47396 45.5781 5.21875 45.5 5.0625 45.3438C4.91667 45.1771 4.84375 44.901 4.84375 44.5156C4.84375 44.1302 4.91667 43.8594 5.0625 43.7031C5.21875 43.5365 5.47396 43.4531 5.82812 43.4531H11.2031C11.5573 43.4531 11.8073 43.5365 11.9531 43.7031C12.1094 43.8594 12.1875 44.1302 12.1875 44.5156C12.1875 44.901 12.1094 45.1771 11.9531 45.3438C11.8073 45.5 11.5573 45.5781 11.2031 45.5781H8.92188L10.4844 58.0938L13.4219 48.9062C13.5677 48.4167 13.9427 48.1719 14.5469 48.1719C14.8802 48.1719 15.1354 48.224 15.3125 48.3281C15.5 48.4323 15.625 48.5885 15.6875 48.7969L18.6094 58.0938L20.2344 45.5781H18.2969C17.9427 45.5781 17.6875 45.5 17.5312 45.3438C17.3854 45.1771 17.3125 44.901 17.3125 44.5156C17.3125 44.1302 17.3854 43.8594 17.5312 43.7031C17.6875 43.5365 17.9427 43.4531 18.2969 43.4531H23.3594ZM35.5619 43.1094C35.989 43.1094 36.291 43.1875 36.4681 43.3438C36.6452 43.5 36.7338 43.7604 36.7338 44.125V47.7188C36.7338 48.0833 36.6452 48.3438 36.4681 48.5C36.291 48.6562 35.989 48.7344 35.5619 48.7344C35.166 48.7344 34.8952 48.599 34.7494 48.3281C34.2494 47.3802 33.5463 46.6615 32.64 46.1719C31.7338 45.6719 30.7025 45.4219 29.5463 45.4219C28.4004 45.4219 27.5098 45.6875 26.8744 46.2188C26.2494 46.75 25.9369 47.4635 25.9369 48.3594C25.9369 48.7865 26.0463 49.1458 26.265 49.4375C26.4838 49.7292 26.7963 49.9792 27.2025 50.1875C27.5671 50.375 27.9942 50.5312 28.4838 50.6562C28.9733 50.7708 29.6296 50.9062 30.4525 51.0625C31.3483 51.2396 32.0567 51.3906 32.5775 51.5156C33.1088 51.6302 33.6296 51.7917 34.14 52C35.1817 52.4271 35.9942 53.026 36.5775 53.7969C37.1713 54.5573 37.4681 55.5885 37.4681 56.8906C37.4681 57.974 37.2129 58.9271 36.7025 59.75C36.1921 60.5625 35.4369 61.1979 34.4369 61.6562C33.4473 62.1146 32.2546 62.3438 30.8588 62.3438C29.8171 62.3438 28.8483 62.1562 27.9525 61.7812C27.0671 61.3958 26.2963 60.8385 25.64 60.1094V61.3281C25.64 61.6927 25.5515 61.9531 25.3744 62.1094C25.1973 62.2656 24.8952 62.3438 24.4681 62.3438C24.041 62.3438 23.739 62.2656 23.5619 62.1094C23.3848 61.9531 23.2963 61.6927 23.2963 61.3281V56.6406C23.2963 56.276 23.3848 56.0156 23.5619 55.8594C23.739 55.7031 24.041 55.625 24.4681 55.625C24.916 55.625 25.2181 55.8438 25.3744 56.2812C25.8015 57.4896 26.4785 58.4167 27.4056 59.0625C28.3431 59.7083 29.4942 60.0312 30.8588 60.0312C32.1921 60.0312 33.2129 59.7448 33.9213 59.1719C34.64 58.599 34.9994 57.8385 34.9994 56.8906C34.9994 56.2344 34.8327 55.7031 34.4994 55.2969C34.1765 54.8802 33.7025 54.5365 33.0775 54.2656C32.6817 54.0885 32.2494 53.9479 31.7806 53.8438C31.3119 53.7292 30.6713 53.5885 29.8588 53.4219C29.0046 53.2552 28.2858 53.099 27.7025 52.9531C27.1296 52.8073 26.5983 52.625 26.1088 52.4062C25.2754 52.0312 24.6244 51.526 24.1556 50.8906C23.6973 50.2448 23.4681 49.401 23.4681 48.3594C23.4681 47.2865 23.7233 46.3542 24.2338 45.5625C24.7546 44.7708 25.4733 44.1667 26.39 43.75C27.3171 43.3229 28.3692 43.1094 29.5463 43.1094C30.4629 43.1094 31.3483 43.2865 32.2025 43.6406C33.0567 43.9948 33.7858 44.474 34.39 45.0781V44.125C34.39 43.7604 34.4785 43.5 34.6556 43.3438C34.8327 43.1875 35.1348 43.1094 35.5619 43.1094ZM53.7644 43.4531C54.1185 43.4531 54.3685 43.5365 54.5144 43.7031C54.6706 43.8594 54.7488 44.1302 54.7488 44.5156C54.7488 44.901 54.6706 45.1771 54.5144 45.3438C54.3685 45.5 54.1185 45.5781 53.7644 45.5781H52.8113L46.2644 51.9062C46.3477 51.8958 46.4727 51.8906 46.6394 51.8906C48.004 51.8906 49.0925 52.4115 49.905 53.4531C50.2279 53.8698 50.5092 54.3385 50.7488 54.8594C50.9988 55.3802 51.2696 56.0312 51.5613 56.8125C51.6029 56.9167 51.7071 57.1927 51.8738 57.6406C52.0508 58.0781 52.2227 58.4479 52.3894 58.75C52.7956 59.5 53.2644 59.875 53.7956 59.875H54.2331C54.5873 59.875 54.8373 59.9583 54.9831 60.125C55.1394 60.2812 55.2175 60.5521 55.2175 60.9375C55.2175 61.3229 55.1394 61.599 54.9831 61.7656C54.8373 61.9219 54.5873 62 54.2331 62H52.9519C51.8998 62 51.004 61.276 50.2644 59.8281C50.004 59.3073 49.6967 58.5938 49.3425 57.6875C49.1029 57.0521 48.8842 56.5156 48.6863 56.0781C48.4883 55.6406 48.2696 55.25 48.03 54.9062C47.78 54.5521 47.4623 54.2812 47.0769 54.0938C46.7019 53.9062 46.2748 53.8125 45.7956 53.8125C45.3581 53.8125 44.9363 53.8906 44.53 54.0469C44.1238 54.2031 43.7644 54.4323 43.4519 54.7344L42.9831 55.1875V59.875H45.5144C45.8685 59.875 46.1185 59.9583 46.2644 60.125C46.4206 60.2812 46.4988 60.5521 46.4988 60.9375C46.4988 61.3229 46.4206 61.599 46.2644 61.7656C46.1185 61.9219 45.8685 62 45.5144 62H38.8894C38.5352 62 38.28 61.9219 38.1238 61.7656C37.9779 61.599 37.905 61.3229 37.905 60.9375C37.905 60.5521 37.9779 60.2812 38.1238 60.125C38.28 59.9583 38.5352 59.875 38.8894 59.875H40.6394V45.5781H38.8894C38.5352 45.5781 38.28 45.5 38.1238 45.3438C37.9779 45.1771 37.905 44.901 37.905 44.5156C37.905 44.1302 37.9779 43.8594 38.1238 43.7031C38.28 43.5365 38.5352 43.4531 38.8894 43.4531H44.4206C44.7748 43.4531 45.0248 43.5365 45.1706 43.7031C45.3269 43.8594 45.405 44.1302 45.405 44.5156C45.405 44.901 45.3269 45.1771 45.1706 45.3438C45.0248 45.5 44.7748 45.5781 44.4206 45.5781H42.9831V52.2812L49.8269 45.5781H48.7019C48.3477 45.5781 48.0925 45.5 47.9363 45.3438C47.7904 45.1771 47.7175 44.901 47.7175 44.5156C47.7175 44.1302 47.7904 43.8594 47.9363 43.7031C48.0925 43.5365 48.3477 43.4531 48.7019 43.4531H53.7644Z" fill="white"/>
<path d="M23.1111 2H13V13.0833H23.1111V2Z" fill="#D9D9D9" fill-opacity="0.25"/>
<path d="M21.8905 2.88574C22.0455 2.88574 22.1548 2.9222 22.2186 2.99512C22.287 3.06348 22.3212 3.18197 22.3212 3.35059C22.3212 3.51921 22.287 3.63997 22.2186 3.71289C22.1548 3.78125 22.0455 3.81543 21.8905 3.81543H21.5214L20.578 10.7061C20.5552 10.8701 20.496 10.984 20.4003 11.0479C20.3091 11.1162 20.1724 11.1504 19.9901 11.1504C19.6164 11.1504 19.384 11.0023 19.2929 10.7061L18.0282 6.73438L16.7499 10.7061C16.6542 11.0023 16.4172 11.1504 16.039 11.1504C15.8612 11.1504 15.7245 11.1162 15.6288 11.0479C15.5377 10.9795 15.483 10.8656 15.4647 10.7061L14.5556 3.81543H14.2206C14.0656 3.81543 13.954 3.78125 13.8856 3.71289C13.8218 3.63997 13.7899 3.51921 13.7899 3.35059C13.7899 3.18197 13.8218 3.06348 13.8856 2.99512C13.954 2.9222 14.0656 2.88574 14.2206 2.88574H16.5722C16.7271 2.88574 16.8365 2.9222 16.9003 2.99512C16.9686 3.06348 17.0028 3.18197 17.0028 3.35059C17.0028 3.51921 16.9686 3.63997 16.9003 3.71289C16.8365 3.78125 16.7271 3.81543 16.5722 3.81543H15.5741L16.2577 9.29102L17.5429 5.27148C17.6067 5.05729 17.7707 4.9502 18.035 4.9502C18.1809 4.9502 18.2925 4.97298 18.37 5.01855C18.452 5.06413 18.5067 5.13249 18.5341 5.22363L19.8124 9.29102L20.5233 3.81543H19.6757C19.5207 3.81543 19.4091 3.78125 19.3407 3.71289C19.2769 3.63997 19.245 3.51921 19.245 3.35059C19.245 3.18197 19.2769 3.06348 19.3407 2.99512C19.4091 2.9222 19.5207 2.88574 19.6757 2.88574H21.8905Z" fill="#1EFF1A"/>
<path d="M35.5556 2H25.4445V13.0833H35.5556V2Z" fill="#D9D9D9" fill-opacity="0.25"/>
<path d="M48 2H37.8889V13.0833H48V2Z" fill="#D9D9D9" fill-opacity="0.25"/>
<path d="M23.1111 14.6667H13V25.75H23.1111V14.6667Z" fill="#D9D9D9" fill-opacity="0.25"/>
<path d="M35.5556 14.6667H25.4445V25.75H35.5556V14.6667Z" fill="#D9D9D9" fill-opacity="0.25"/>
<path d="M48 14.6667H37.8889V25.75H48V14.6667Z" fill="#D9D9D9" fill-opacity="0.25"/>
<path d="M23.1111 27.3333H13V38.4166H23.1111V27.3333Z" fill="#D9D9D9" fill-opacity="0.25"/>
<path d="M35.5556 27.3333H25.4445V38.4166H35.5556V27.3333Z" fill="#D9D9D9" fill-opacity="0.25"/>
<path d="M48 27.3333H37.8889V38.4166H48V27.3333Z" fill="#D9D9D9" fill-opacity="0.25"/>
<path d="M32.749 15.7354C32.9359 15.7354 33.068 15.7695 33.1455 15.8379C33.223 15.9062 33.2617 16.0202 33.2617 16.1797V17.752C33.2617 17.9115 33.223 18.0254 33.1455 18.0938C33.068 18.1621 32.9359 18.1963 32.749 18.1963C32.5758 18.1963 32.4574 18.137 32.3936 18.0186C32.1748 17.6038 31.8672 17.2894 31.4707 17.0752C31.0742 16.8564 30.623 16.7471 30.1172 16.7471C29.6159 16.7471 29.2262 16.8633 28.9482 17.0957C28.6748 17.3281 28.5381 17.6403 28.5381 18.0322C28.5381 18.2191 28.5859 18.3763 28.6816 18.5039C28.7773 18.6315 28.9141 18.7409 29.0918 18.832C29.2513 18.9141 29.4382 18.9824 29.6523 19.0371C29.8665 19.0872 30.1536 19.1465 30.5137 19.2148C30.9056 19.2923 31.2155 19.3584 31.4434 19.4131C31.6758 19.4632 31.9036 19.5339 32.127 19.625C32.5827 19.8118 32.9382 20.0739 33.1934 20.4111C33.4531 20.7438 33.583 21.195 33.583 21.7646C33.583 22.2386 33.4714 22.6556 33.248 23.0156C33.0247 23.3711 32.6943 23.6491 32.2568 23.8496C31.8239 24.0501 31.3021 24.1504 30.6914 24.1504C30.2357 24.1504 29.8118 24.0684 29.4199 23.9043C29.0326 23.7357 28.6953 23.4919 28.4082 23.1729V23.7061C28.4082 23.8656 28.3695 23.9795 28.292 24.0479C28.2145 24.1162 28.0824 24.1504 27.8955 24.1504C27.7087 24.1504 27.5765 24.1162 27.499 24.0479C27.4215 23.9795 27.3828 23.8656 27.3828 23.7061V21.6553C27.3828 21.4958 27.4215 21.3818 27.499 21.3135C27.5765 21.2451 27.7087 21.2109 27.8955 21.2109C28.0915 21.2109 28.2236 21.3066 28.292 21.498C28.4788 22.0267 28.7751 22.4323 29.1807 22.7148C29.5908 22.9974 30.0944 23.1387 30.6914 23.1387C31.2747 23.1387 31.7214 23.0133 32.0312 22.7627C32.3457 22.512 32.5029 22.1794 32.5029 21.7646C32.5029 21.4775 32.43 21.2451 32.2842 21.0674C32.1429 20.8851 31.9355 20.7347 31.6621 20.6162C31.4889 20.5387 31.2998 20.4772 31.0947 20.4316C30.8896 20.3815 30.6094 20.32 30.2539 20.2471C29.8802 20.1742 29.5658 20.1058 29.3105 20.042C29.0599 19.9782 28.8275 19.8984 28.6133 19.8027C28.2487 19.6387 27.9639 19.4176 27.7588 19.1396C27.5583 18.8571 27.458 18.488 27.458 18.0322C27.458 17.5628 27.5697 17.1549 27.793 16.8086C28.0208 16.4622 28.3353 16.1979 28.7363 16.0156C29.1419 15.8288 29.6022 15.7354 30.1172 15.7354C30.5182 15.7354 30.9056 15.8128 31.2793 15.9678C31.653 16.1227 31.972 16.3324 32.2363 16.5967V16.1797C32.2363 16.0202 32.2751 15.9062 32.3525 15.8379C32.43 15.7695 32.5622 15.7354 32.749 15.7354Z" fill="#1EFF1A"/>
<path d="M45.7881 28.8857C45.943 28.8857 46.0524 28.9222 46.1162 28.9951C46.1846 29.0635 46.2188 29.182 46.2188 29.3506C46.2188 29.5192 46.1846 29.64 46.1162 29.7129C46.0524 29.7812 45.943 29.8154 45.7881 29.8154H45.3711L42.5068 32.584C42.5433 32.5794 42.598 32.5771 42.6709 32.5771C43.2679 32.5771 43.7441 32.805 44.0996 33.2607C44.2409 33.443 44.3639 33.6481 44.4688 33.876C44.5781 34.1038 44.6966 34.3887 44.8242 34.7305C44.8424 34.776 44.888 34.8968 44.9609 35.0928C45.0384 35.2842 45.1136 35.446 45.1865 35.5781C45.3643 35.9062 45.5693 36.0703 45.8018 36.0703H45.9932C46.1481 36.0703 46.2575 36.1068 46.3213 36.1797C46.3896 36.248 46.4238 36.3665 46.4238 36.5352C46.4238 36.7038 46.3896 36.8245 46.3213 36.8975C46.2575 36.9658 46.1481 37 45.9932 37H45.4326C44.9723 37 44.5804 36.6833 44.2568 36.0498C44.1429 35.8219 44.0085 35.5098 43.8535 35.1133C43.7487 34.8353 43.653 34.6006 43.5664 34.4092C43.4798 34.2178 43.3841 34.0469 43.2793 33.8965C43.1699 33.7415 43.0309 33.623 42.8623 33.541C42.6982 33.459 42.5114 33.418 42.3018 33.418C42.1104 33.418 41.9258 33.4521 41.748 33.5205C41.5703 33.5889 41.4131 33.6891 41.2764 33.8213L41.0713 34.0195V36.0703H42.1787C42.3337 36.0703 42.443 36.1068 42.5068 36.1797C42.5752 36.248 42.6094 36.3665 42.6094 36.5352C42.6094 36.7038 42.5752 36.8245 42.5068 36.8975C42.443 36.9658 42.3337 37 42.1787 37H39.2803C39.1253 37 39.0137 36.9658 38.9453 36.8975C38.8815 36.8245 38.8496 36.7038 38.8496 36.5352C38.8496 36.3665 38.8815 36.248 38.9453 36.1797C39.0137 36.1068 39.1253 36.0703 39.2803 36.0703H40.0459V29.8154H39.2803C39.1253 29.8154 39.0137 29.7812 38.9453 29.7129C38.8815 29.64 38.8496 29.5192 38.8496 29.3506C38.8496 29.182 38.8815 29.0635 38.9453 28.9951C39.0137 28.9222 39.1253 28.8857 39.2803 28.8857H41.7002C41.8551 28.8857 41.9645 28.9222 42.0283 28.9951C42.0967 29.0635 42.1309 29.182 42.1309 29.3506C42.1309 29.5192 42.0967 29.64 42.0283 29.7129C41.9645 29.7812 41.8551 29.8154 41.7002 29.8154H41.0713V32.748L44.0654 29.8154H43.5732C43.4183 29.8154 43.3066 29.7812 43.2383 29.7129C43.1745 29.64 43.1426 29.5192 43.1426 29.3506C43.1426 29.182 43.1745 29.0635 43.2383 28.9951C43.3066 28.9222 43.4183 28.8857 43.5732 28.8857H45.7881Z" fill="#1EFF1A"/>
<path d="M33.7881 2.88574C33.943 2.88574 34.0524 2.9222 34.1162 2.99512C34.1846 3.06348 34.2188 3.18197 34.2188 3.35059C34.2188 3.51921 34.1846 3.63997 34.1162 3.71289C34.0524 3.78125 33.943 3.81543 33.7881 3.81543H32.4141V8.72363C32.4141 9.52116 32.1816 10.125 31.7168 10.5352C31.252 10.9453 30.5729 11.1504 29.6797 11.1504C29.1602 11.1504 28.6885 11.0592 28.2646 10.877C27.8454 10.6901 27.4899 10.4372 27.1982 10.1182C27.1253 10.0316 27.0889 9.91536 27.0889 9.76953V7.82129C27.0889 7.66178 27.1276 7.54785 27.2051 7.47949C27.2826 7.41113 27.4147 7.37695 27.6016 7.37695C27.7884 7.37695 27.9206 7.41113 27.998 7.47949C28.0755 7.54785 28.1143 7.66178 28.1143 7.82129V9.62598C28.4971 9.96777 29.0212 10.1387 29.6865 10.1387C30.2835 10.1387 30.7165 10.0065 30.9854 9.74219C31.2542 9.47786 31.3887 9.06999 31.3887 8.51855V3.81543H29.0576C28.9027 3.81543 28.791 3.78125 28.7227 3.71289C28.6589 3.63997 28.627 3.51921 28.627 3.35059C28.627 3.18197 28.6589 3.06348 28.7227 2.99512C28.791 2.9222 28.9027 2.88574 29.0576 2.88574H33.7881Z" fill="white" fill-opacity="0.53"/>
<path d="M22.1982 15.8857C22.3532 15.8857 22.4626 15.9222 22.5264 15.9951C22.5947 16.0635 22.6289 16.182 22.6289 16.3506C22.6289 16.5192 22.5947 16.64 22.5264 16.7129C22.4626 16.7812 22.3532 16.8154 22.1982 16.8154H21.6719L19.2178 23.7061C19.1585 23.8656 19.0697 23.9795 18.9512 24.0479C18.8372 24.1162 18.68 24.1504 18.4795 24.1504C18.2835 24.1504 18.1263 24.1139 18.0078 24.041C17.8939 23.9727 17.8096 23.861 17.7549 23.7061L15.3213 16.8154H14.8018C14.6468 16.8154 14.5352 16.7812 14.4668 16.7129C14.403 16.64 14.3711 16.5192 14.3711 16.3506C14.3711 16.182 14.403 16.0635 14.4668 15.9951C14.5352 15.9222 14.6468 15.8857 14.8018 15.8857H17.3584C17.5133 15.8857 17.6227 15.9222 17.6865 15.9951C17.7549 16.0635 17.7891 16.182 17.7891 16.3506C17.7891 16.5192 17.7549 16.64 17.6865 16.7129C17.6227 16.7812 17.5133 16.8154 17.3584 16.8154H16.3945L18.4863 22.8584L20.5986 16.8154H19.915C19.7601 16.8154 19.6484 16.7812 19.5801 16.7129C19.5163 16.64 19.4844 16.5192 19.4844 16.3506C19.4844 16.182 19.5163 16.0635 19.5801 15.9951C19.6484 15.9222 19.7601 15.8857 19.915 15.8857H22.1982Z" fill="white" fill-opacity="0.53"/>
<path d="M19.0674 28.8857C19.2223 28.8857 19.3317 28.9222 19.3955 28.9951C19.4639 29.0635 19.498 29.182 19.498 29.3506C19.498 29.5192 19.4639 29.64 19.3955 29.7129C19.3317 29.7812 19.2223 29.8154 19.0674 29.8154H17.4131V36.0703H20.7969V33.8213C20.7969 33.6618 20.8356 33.5479 20.9131 33.4795C20.9906 33.4111 21.1227 33.377 21.3096 33.377C21.4964 33.377 21.6286 33.4111 21.7061 33.4795C21.7835 33.5479 21.8223 33.6618 21.8223 33.8213V36.5352C21.8223 36.7038 21.7881 36.8245 21.7197 36.8975C21.6559 36.9658 21.5465 37 21.3916 37H15.2803C15.1253 37 15.0137 36.9658 14.9453 36.8975C14.8815 36.8245 14.8496 36.7038 14.8496 36.5352C14.8496 36.3665 14.8815 36.248 14.9453 36.1797C15.0137 36.1068 15.1253 36.0703 15.2803 36.0703H16.3877V29.8154H15.2803C15.1253 29.8154 15.0137 29.7812 14.9453 29.7129C14.8815 29.64 14.8496 29.5192 14.8496 29.3506C14.8496 29.182 14.8815 29.0635 14.9453 28.9951C15.0137 28.9222 15.1253 28.8857 15.2803 28.8857H19.0674Z" fill="white" fill-opacity="0.53"/>
<path d="M30.7393 28.8857C31.3089 28.8857 31.7965 28.9814 32.2021 29.1729C32.6123 29.3643 32.9222 29.6331 33.1318 29.9795C33.346 30.3258 33.4531 30.7292 33.4531 31.1895C33.4531 31.709 33.2845 32.1488 32.9473 32.5088C32.61 32.8688 32.1475 33.1149 31.5596 33.2471C31.8148 33.3473 32.0267 33.5091 32.1953 33.7324C32.3366 33.9193 32.4574 34.1061 32.5576 34.293C32.6579 34.4753 32.7695 34.7008 32.8926 34.9697C33.0202 35.2477 33.1182 35.4505 33.1865 35.5781C33.3643 35.9062 33.5693 36.0703 33.8018 36.0703H33.9932C34.1481 36.0703 34.2575 36.1068 34.3213 36.1797C34.3896 36.248 34.4238 36.3665 34.4238 36.5352C34.4238 36.7038 34.3896 36.8245 34.3213 36.8975C34.2575 36.9658 34.1481 37 33.9932 37H33.501C33.2275 37 32.9951 36.9294 32.8037 36.7881C32.6169 36.6423 32.4346 36.3962 32.2568 36.0498C32.1566 35.8493 32.0335 35.585 31.8877 35.2568C31.751 34.9561 31.6393 34.7236 31.5527 34.5596C31.4707 34.391 31.3704 34.2246 31.252 34.0605C31.1152 33.8691 30.9512 33.7256 30.7598 33.6299C30.5684 33.5296 30.3382 33.4795 30.0693 33.4795H29.1396V36.0703H30.0283C30.1833 36.0703 30.2926 36.1068 30.3564 36.1797C30.4248 36.248 30.459 36.3665 30.459 36.5352C30.459 36.7038 30.4248 36.8245 30.3564 36.8975C30.2926 36.9658 30.1833 37 30.0283 37H27.2803C27.1253 37 27.0137 36.9658 26.9453 36.8975C26.8815 36.8245 26.8496 36.7038 26.8496 36.5352C26.8496 36.3665 26.8815 36.248 26.9453 36.1797C27.0137 36.1068 27.1253 36.0703 27.2803 36.0703H28.1143V29.8154H27.2803C27.1253 29.8154 27.0137 29.7812 26.9453 29.7129C26.8815 29.64 26.8496 29.5192 26.8496 29.3506C26.8496 29.182 26.8815 29.0635 26.9453 28.9951C27.0137 28.9222 27.1253 28.8857 27.2803 28.8857H30.7393ZM29.1396 32.5498H30.5273C31.7578 32.5498 32.373 32.0964 32.373 31.1895C32.373 30.752 32.2181 30.4147 31.9082 30.1777C31.5983 29.9362 31.1608 29.8154 30.5957 29.8154H29.1396V32.5498Z" fill="white" fill-opacity="0.53"/>
<path d="M45.7881 15.8857C45.943 15.8857 46.0524 15.9222 46.1162 15.9951C46.1846 16.0635 46.2188 16.182 46.2188 16.3506C46.2188 16.5192 46.1846 16.64 46.1162 16.7129C46.0524 16.7812 45.943 16.8154 45.7881 16.8154H45.3711L42.5068 19.584C42.5433 19.5794 42.598 19.5771 42.6709 19.5771C43.2679 19.5771 43.7441 19.805 44.0996 20.2607C44.2409 20.443 44.3639 20.6481 44.4688 20.876C44.5781 21.1038 44.6966 21.3887 44.8242 21.7305C44.8424 21.776 44.888 21.8968 44.9609 22.0928C45.0384 22.2842 45.1136 22.446 45.1865 22.5781C45.3643 22.9062 45.5693 23.0703 45.8018 23.0703H45.9932C46.1481 23.0703 46.2575 23.1068 46.3213 23.1797C46.3896 23.248 46.4238 23.3665 46.4238 23.5352C46.4238 23.7038 46.3896 23.8245 46.3213 23.8975C46.2575 23.9658 46.1481 24 45.9932 24H45.4326C44.9723 24 44.5804 23.6833 44.2568 23.0498C44.1429 22.8219 44.0085 22.5098 43.8535 22.1133C43.7487 21.8353 43.653 21.6006 43.5664 21.4092C43.4798 21.2178 43.3841 21.0469 43.2793 20.8965C43.1699 20.7415 43.0309 20.623 42.8623 20.541C42.6982 20.459 42.5114 20.418 42.3018 20.418C42.1104 20.418 41.9258 20.4521 41.748 20.5205C41.5703 20.5889 41.4131 20.6891 41.2764 20.8213L41.0713 21.0195V23.0703H42.1787C42.3337 23.0703 42.443 23.1068 42.5068 23.1797C42.5752 23.248 42.6094 23.3665 42.6094 23.5352C42.6094 23.7038 42.5752 23.8245 42.5068 23.8975C42.443 23.9658 42.3337 24 42.1787 24H39.2803C39.1253 24 39.0137 23.9658 38.9453 23.8975C38.8815 23.8245 38.8496 23.7038 38.8496 23.5352C38.8496 23.3665 38.8815 23.248 38.9453 23.1797C39.0137 23.1068 39.1253 23.0703 39.2803 23.0703H40.0459V16.8154H39.2803C39.1253 16.8154 39.0137 16.7812 38.9453 16.7129C38.8815 16.64 38.8496 16.5192 38.8496 16.3506C38.8496 16.182 38.8815 16.0635 38.9453 15.9951C39.0137 15.9222 39.1253 15.8857 39.2803 15.8857H41.7002C41.8551 15.8857 41.9645 15.9222 42.0283 15.9951C42.0967 16.0635 42.1309 16.182 42.1309 16.3506C42.1309 16.5192 42.0967 16.64 42.0283 16.7129C41.9645 16.7812 41.8551 16.8154 41.7002 16.8154H41.0713V19.748L44.0654 16.8154H43.5732C43.4183 16.8154 43.3066 16.7812 43.2383 16.7129C43.1745 16.64 43.1426 16.5192 43.1426 16.3506C43.1426 16.182 43.1745 16.0635 43.2383 15.9951C43.3066 15.9222 43.4183 15.8857 43.5732 15.8857H45.7881Z" fill="white" fill-opacity="0.53"/>
<path d="M46.335 2.88574C46.4899 2.88574 46.5993 2.9222 46.6631 2.99512C46.7314 3.06348 46.7656 3.18197 46.7656 3.35059C46.7656 3.51921 46.7314 3.63997 46.6631 3.71289C46.5993 3.78125 46.4899 3.81543 46.335 3.81543H45.9658L45.0225 10.7061C44.9997 10.8701 44.9404 10.984 44.8447 11.0479C44.7536 11.1162 44.6169 11.1504 44.4346 11.1504C44.0609 11.1504 43.8285 11.0023 43.7373 10.7061L42.4727 6.73438L41.1943 10.7061C41.0986 11.0023 40.8617 11.1504 40.4834 11.1504C40.3057 11.1504 40.1689 11.1162 40.0732 11.0479C39.9821 10.9795 39.9274 10.8656 39.9092 10.7061L39 3.81543H38.665C38.5101 3.81543 38.3984 3.78125 38.3301 3.71289C38.2663 3.63997 38.2344 3.51921 38.2344 3.35059C38.2344 3.18197 38.2663 3.06348 38.3301 2.99512C38.3984 2.9222 38.5101 2.88574 38.665 2.88574H41.0166C41.1715 2.88574 41.2809 2.9222 41.3447 2.99512C41.4131 3.06348 41.4473 3.18197 41.4473 3.35059C41.4473 3.51921 41.4131 3.63997 41.3447 3.71289C41.2809 3.78125 41.1715 3.81543 41.0166 3.81543H40.0186L40.7021 9.29102L41.9873 5.27148C42.0511 5.05729 42.2152 4.9502 42.4795 4.9502C42.6253 4.9502 42.737 4.97298 42.8145 5.01855C42.8965 5.06413 42.9512 5.13249 42.9785 5.22363L44.2568 9.29102L44.9678 3.81543H44.1201C43.9652 3.81543 43.8535 3.78125 43.7852 3.71289C43.7214 3.63997 43.6895 3.51921 43.6895 3.35059C43.6895 3.18197 43.7214 3.06348 43.7852 2.99512C43.8535 2.9222 43.9652 2.88574 44.1201 2.88574H46.335Z" fill="white" fill-opacity="0.5"/>
<defs>
<filter id="filter0_f_90_24" x="0.84375" y="39.1094" width="58.3738" height="27.2344" filterUnits="userSpaceOnUse" color-interpolation-filters="sRGB">
<feFlood flood-opacity="0" result="BackgroundImageFix"/>
<feBlend mode="normal" in="SourceGraphic" in2="BackgroundImageFix" result="shape"/>
<feGaussianBlur stdDeviation="2" result="effect1_foregroundBlur_90_24"/>
</filter>
</defs>
</svg>
